<svg width="106" height="96" viewBox="0 0 106 96" fill="none" xmlns="http://www.w3.org/2000/svg">
<path d="M15.3077 0.833496C11.3804 0.833496 7.61405 2.39359 4.83707 5.17057C2.06009 7.94755 0.5 11.7139 0.5 15.6412V64.1027C0.5 68.03 2.06009 71.7964 4.83707 74.5733C7.61405 77.3503 11.3804 78.9104 15.3077 78.9104H48.9615V86.9873H36.8462C35.7751 86.9873 34.7479 87.4128 33.9905 88.1702C33.2332 88.9275 32.8077 89.9547 32.8077 91.0258C32.8077 92.0969 33.2332 93.1241 33.9905 93.8814C34.7479 94.6388 35.7751 95.0643 36.8462 95.0643H69.1538C70.2249 95.0643 71.2521 94.6388 72.0095 93.8814C72.7668 93.1241 73.1923 92.0969 73.1923 91.0258C73.1923 89.9547 72.7668 88.9275 72.0095 88.1702C71.2521 87.4128 70.2249 86.9873 69.1538 86.9873H57.0385V78.9104H90.6923C94.6196 78.9104 98.3859 77.3503 101.163 74.5733C103.94 71.7964 105.5 68.03 105.5 64.1027V15.6412C105.5 11.7139 103.94 7.94755 101.163 5.17057C98.3859 2.39359 94.6196 0.833496 90.6923 0.833496H15.3077Z" fill="black"/>
<rect x="9.38477" y="9.17969" width="87.2308" height="59.7692" rx="5" fill="#D9D9D9" fill-opacity="0.13"/>
<path d="M63.8117 34.1607C64.7337 31.3204 68.4618 31.2344 69.555 33.9026L69.6475 34.1623L70.8917 37.9927C71.1769 38.8712 71.6377 39.675 72.243 40.3501C72.8484 41.0251 73.5842 41.5556 74.4009 41.9059L74.7355 42.0373L78.3741 43.3455C81.0723 44.3161 81.154 48.2406 78.6208 49.3913L78.3741 49.4887L74.7355 50.7985C73.9007 51.0985 73.1368 51.5835 72.4952 52.2207C71.8537 52.858 71.3495 53.6327 71.0166 54.4926L70.8917 54.8431L69.649 58.6752C68.727 61.5155 64.9989 61.6015 63.9073 58.9348L63.8117 58.6752L62.569 54.8448C62.2841 53.966 61.8234 53.1619 61.218 52.4865C60.6127 51.8112 59.8767 51.2804 59.0599 50.93L58.7269 50.7985L55.0882 49.4903C52.3885 48.5198 52.3068 44.5953 54.8415 43.4461L55.0882 43.3455L58.7269 42.0373C59.5613 41.7372 60.325 41.2521 60.9662 40.6149C61.6075 39.9776 62.1115 39.203 62.4442 38.3433L62.569 37.9927L63.8117 34.1607ZM79.0649 28.5645C79.3533 28.5645 79.636 28.6496 79.8807 28.8103C80.1255 28.971 80.3225 29.2007 80.4494 29.4734L80.5234 29.6633L81.063 31.3285L82.6465 31.8966C82.9355 31.9999 83.1889 32.1913 83.3746 32.4465C83.5602 32.7016 83.6697 33.009 83.6892 33.3297C83.7086 33.6505 83.6372 33.97 83.484 34.248C83.3308 34.526 83.1026 34.7498 82.8284 34.8911L82.6465 34.969L81.0646 35.537L80.5249 37.2039C80.4266 37.5081 80.2446 37.7747 80.0022 37.97C79.7597 38.1652 79.4676 38.2803 79.163 38.3006C78.8583 38.321 78.5548 38.2457 78.2908 38.0842C78.0269 37.9228 77.8144 37.6825 77.6803 37.3938L77.6063 37.2039L77.0667 35.5387L75.4832 34.9706C75.1942 34.8672 74.9408 34.6758 74.7551 34.4207C74.5695 34.1656 74.46 33.8581 74.4405 33.5374C74.4211 33.2167 74.4925 32.8971 74.6457 32.6192C74.7989 32.3412 75.0271 32.1174 75.3013 31.9761L75.4832 31.8982L77.0651 31.3301L77.6048 29.6633C77.7087 29.3426 77.9054 29.0642 78.1673 28.8671C78.4291 28.6701 78.743 28.5642 79.0649 28.5645Z" fill="white"/>
</svg>
